<?xml version="1.0" encoding="UTF-8"?>
<svg xmlns="http://www.w3.org/2000/svg" xmlns:xlink="http://www.w3.org/1999/xlink" width="200px" height="45px" viewBox="0 0 202 45" version="1.1">
<g id="surface1">
<path style=" stroke:none;fill-rule:nonzero;fill:rgb(0%,30.19608%,59.607846%);fill-opacity:1;" d="M 202 21.875 C 202 23.042969 201.792969 24.25 201.417969 25.417969 C 201.042969 26.625 200.460938 27.710938 199.714844 28.667969 C 198.964844 29.625 198.09375 30.417969 197.054688 31.042969 C 196.011719 31.667969 194.808594 31.960938 193.476562 31.960938 L 172.402344 31.960938 C 171.152344 31.875 170.03125 31.542969 169.03125 30.917969 C 168.035156 30.292969 167.203125 29.5 166.496094 28.542969 C 165.789062 27.585938 165.25 26.5 164.917969 25.332031 C 164.542969 24.167969 164.378906 23 164.378906 21.875 C 164.378906 20.707031 164.585938 19.5 164.960938 18.332031 C 165.332031 17.125 165.914062 16.039062 166.664062 15.082031 C 167.410156 14.125 168.285156 13.332031 169.367188 12.707031 C 170.40625 12.082031 171.609375 11.789062 172.941406 11.789062 L 194.019531 11.789062 C 195.265625 11.871094 196.429688 12.207031 197.386719 12.832031 C 198.382812 13.457031 199.214844 14.25 199.921875 15.207031 C 200.628906 16.164062 201.128906 17.25 201.5 18.414062 C 201.832031 19.582031 202 20.75 202 21.875 M 37.707031 21.875 C 37.707031 23 37.539062 24.167969 37.164062 25.332031 C 36.792969 26.5 36.25 27.585938 35.585938 28.542969 C 34.878906 29.5 34.046875 30.292969 33.050781 30.917969 C 32.050781 31.542969 30.929688 31.875 29.683594 31.960938 L 2.246094 31.960938 C 1.621094 31.960938 1.121094 31.75 0.664062 31.292969 C 0.25 30.875 0 30.335938 0 29.710938 L 0 13.957031 C 0 13.332031 0.207031 12.832031 0.664062 12.371094 C 1.082031 11.957031 1.621094 11.707031 2.246094 11.707031 L 29.183594 11.707031 C 30.515625 11.707031 31.71875 11.996094 32.757812 12.621094 C 33.796875 13.25 34.714844 14.039062 35.460938 15 C 36.210938 15.957031 36.75 17.039062 37.164062 18.25 C 37.539062 19.542969 37.707031 20.707031 37.707031 21.875 Z M 4.488281 16.25 L 4.488281 27.542969 L 28.269531 27.542969 C 29.308594 27.542969 30.179688 27.335938 30.847656 26.960938 C 31.511719 26.585938 32.050781 26.085938 32.425781 25.542969 C 32.800781 25 33.089844 24.375 33.214844 23.707031 C 33.339844 23.042969 33.425781 22.417969 33.425781 21.875 C 33.425781 21.332031 33.339844 20.707031 33.214844 20.042969 C 33.089844 19.375 32.800781 18.75 32.425781 18.207031 C 32.050781 17.664062 31.511719 17.164062 30.847656 16.789062 C 30.179688 16.414062 29.308594 16.207031 28.269531 16.207031 L 4.488281 16.207031 Z M 51.882812 16.25 C 50.800781 16.25 49.929688 16.457031 49.261719 16.832031 C 48.597656 17.207031 48.097656 17.707031 47.683594 18.25 C 47.390625 18.707031 47.144531 19.164062 47.019531 19.667969 L 75.414062 19.667969 C 76.035156 19.667969 76.535156 19.875 76.992188 20.332031 C 77.40625 20.75 77.65625 21.292969 77.65625 21.917969 C 77.65625 22.542969 77.449219 23.042969 76.992188 23.5 C 76.578125 23.917969 76.035156 24.167969 75.414062 24.167969 L 47.019531 24.167969 C 47.183594 24.667969 47.390625 25.167969 47.683594 25.625 C 48.058594 26.167969 48.597656 26.667969 49.261719 27.042969 C 49.929688 27.417969 50.800781 27.625 51.882812 27.625 L 77.367188 27.625 C 77.988281 27.625 78.488281 27.835938 78.945312 28.292969 C 79.363281 28.710938 79.609375 29.25 79.609375 29.875 C 79.609375 30.5 79.402344 31 78.945312 31.460938 C 78.488281 31.875 77.988281 32.128906 77.367188 32.128906 L 50.386719 32.128906 C 49.136719 32.128906 48.015625 31.835938 47.019531 31.210938 C 46.019531 30.585938 45.1875 29.792969 44.480469 28.835938 C 43.777344 27.875 43.277344 26.792969 42.902344 25.542969 C 42.527344 24.332031 42.363281 23.167969 42.363281 22.042969 C 42.363281 20.875 42.570312 19.667969 42.945312 18.5 C 43.320312 17.289062 43.898438 16.207031 44.648438 15.25 C 45.398438 14.289062 46.269531 13.5 47.351562 12.871094 C 48.390625 12.246094 49.597656 11.957031 50.925781 11.957031 L 77.40625 11.957031 C 78.03125 11.957031 78.53125 12.164062 78.988281 12.621094 C 79.402344 13.039062 79.652344 13.582031 79.652344 14.207031 C 79.652344 14.832031 79.445312 15.375 78.988281 15.789062 C 78.53125 16.207031 78.03125 16.457031 77.40625 16.457031 L 51.882812 16.457031 Z M 122.515625 21.875 C 122.515625 20.707031 122.722656 19.5 123.09375 18.332031 C 123.46875 17.125 124.050781 16.039062 124.800781 15.082031 C 125.546875 14.125 126.421875 13.332031 127.460938 12.707031 C 128.5 12.082031 129.707031 11.789062 131.035156 11.789062 L 157.976562 11.789062 C 158.597656 11.789062 159.097656 11.996094 159.554688 12.457031 C 159.96875 12.871094 160.21875 13.414062 160.21875 14.039062 C 160.21875 14.664062 160.011719 15.207031 159.554688 15.625 C 159.140625 16.039062 158.597656 16.289062 157.976562 16.289062 L 131.992188 16.289062 C 130.910156 16.289062 130.039062 16.5 129.375 16.875 C 128.707031 17.25 128.167969 17.75 127.792969 18.289062 C 127.417969 18.832031 127.128906 19.457031 127.003906 20.125 C 126.878906 20.792969 126.796875 21.417969 126.796875 21.957031 C 126.796875 22.5 126.878906 23.125 127.003906 23.792969 C 127.128906 24.457031 127.417969 25.082031 127.792969 25.625 C 128.167969 26.167969 128.707031 26.667969 129.375 27.042969 C 130.039062 27.417969 130.910156 27.625 131.992188 27.625 L 157.976562 27.625 C 158.597656 27.625 159.097656 27.835938 159.554688 28.292969 C 159.96875 28.710938 160.21875 29.25 160.21875 29.875 C 160.21875 30.5 160.011719 31 159.554688 31.460938 C 159.140625 31.875 158.597656 32.128906 157.976562 32.128906 L 130.539062 32.128906 C 129.289062 32.128906 128.125 31.835938 127.167969 31.210938 C 126.171875 30.585938 125.339844 29.792969 124.632812 28.835938 C 123.925781 27.875 123.386719 26.792969 123.054688 25.542969 C 122.722656 24.207031 122.515625 23.042969 122.515625 21.875 Z M 192.523438 27.542969 C 193.5625 27.542969 194.433594 27.335938 195.097656 26.960938 C 195.765625 26.585938 196.304688 26.085938 196.679688 25.542969 C 197.054688 25 197.34375 24.375 197.46875 23.707031 C 197.59375 23.042969 197.675781 22.417969 197.675781 21.875 C 197.675781 21.332031 197.59375 20.707031 197.46875 20.042969 C 197.34375 19.375 197.054688 18.75 196.679688 18.207031 C 196.304688 17.664062 195.765625 17.164062 195.097656 16.789062 C 194.433594 16.414062 193.5625 16.207031 192.523438 16.207031 L 173.8125 16.207031 C 172.734375 16.207031 171.859375 16.414062 171.195312 16.789062 C 170.53125 17.164062 169.988281 17.664062 169.613281 18.207031 C 169.242188 18.75 168.949219 19.375 168.824219 20.042969 C 168.699219 20.707031 168.617188 21.332031 168.617188 21.875 C 168.617188 22.417969 168.699219 23.042969 168.824219 23.707031 C 168.949219 24.375 169.242188 25 169.613281 25.542969 C 169.988281 26.085938 170.53125 26.585938 171.195312 26.960938 C 171.859375 27.335938 172.734375 27.542969 173.8125 27.542969 Z M 192.523438 27.542969 "/>
<path style=" stroke:none;fill-rule:evenodd;fill:rgb(83.529413%,12.941177%,12.941177%);fill-opacity:1;" d="M 118.023438 21.875 L 84.019531 43.753906 L 101.6875 25.625 L 84.019531 21.875 L 117.980469 0.0351562 L 100.355469 18.164062 L 118.023438 21.875 "/>
<path style=" stroke:none;fill-rule:nonzero;fill:rgb(36.470589%,36.470589%,36.470589%);fill-opacity:1;" d="M 105.84375 44.839844 L 107.132812 38.671875 L 109.710938 38.671875 C 110.167969 38.671875 110.5 38.710938 110.707031 38.835938 C 110.914062 38.921875 111.121094 39.128906 111.246094 39.378906 C 111.371094 39.628906 111.457031 39.921875 111.457031 40.210938 C 111.457031 40.460938 111.414062 40.710938 111.289062 41.003906 C 111.207031 41.253906 111.039062 41.503906 110.914062 41.671875 C 110.75 41.835938 110.582031 41.960938 110.417969 42.046875 C 110.25 42.128906 110.082031 42.210938 109.875 42.253906 C 109.460938 42.335938 109.085938 42.378906 108.671875 42.378906 L 107.132812 42.378906 L 106.632812 44.878906 L 105.84375 44.878906 M 107.339844 41.628906 L 108.710938 41.628906 C 109.253906 41.628906 109.625 41.585938 109.875 41.460938 C 110.125 41.335938 110.332031 41.171875 110.457031 40.960938 C 110.625 40.710938 110.664062 40.460938 110.664062 40.210938 C 110.664062 40.003906 110.625 39.835938 110.539062 39.710938 C 110.457031 39.585938 110.375 39.503906 110.207031 39.421875 C 110.082031 39.378906 109.792969 39.335938 109.375 39.335938 L 107.796875 39.335938 Z M 107.339844 41.628906 "/>
<path style=" stroke:none;fill-rule:nonzero;fill:rgb(36.470589%,36.470589%,36.470589%);fill-opacity:1;" d="M 113.410156 42.253906 C 113.410156 41.171875 113.742188 40.253906 114.367188 39.585938 C 114.988281 38.921875 115.777344 38.546875 116.695312 38.546875 C 117.441406 38.546875 118.066406 38.796875 118.5625 39.296875 C 119.0625 39.796875 119.269531 40.460938 119.269531 41.296875 C 119.269531 41.921875 119.144531 42.460938 118.898438 42.960938 C 118.730469 43.335938 118.480469 43.671875 118.191406 43.960938 C 117.898438 44.253906 117.609375 44.460938 117.277344 44.585938 C 116.859375 44.796875 116.402344 44.878906 115.945312 44.878906 C 115.445312 44.878906 114.988281 44.753906 114.613281 44.503906 C 114.199219 44.253906 113.910156 43.921875 113.699219 43.503906 C 113.535156 43.171875 113.410156 42.710938 113.410156 42.253906 M 114.242188 42.296875 C 114.242188 42.671875 114.324219 43.003906 114.449219 43.296875 C 114.574219 43.585938 114.824219 43.835938 115.113281 44.003906 C 115.40625 44.171875 115.738281 44.253906 116.027344 44.253906 C 116.359375 44.253906 116.652344 44.171875 116.941406 44.046875 C 117.234375 43.878906 117.484375 43.671875 117.691406 43.421875 C 117.898438 43.171875 118.105469 42.835938 118.230469 42.421875 C 118.355469 42.046875 118.441406 41.628906 118.441406 41.253906 C 118.441406 40.628906 118.273438 40.171875 117.941406 39.796875 C 117.609375 39.421875 117.191406 39.253906 116.652344 39.253906 C 115.988281 39.253906 115.445312 39.546875 114.949219 40.085938 C 114.488281 40.628906 114.242188 41.378906 114.242188 42.296875 Z M 114.242188 42.296875 "/>
<path style=" stroke:none;fill-rule:nonzero;fill:rgb(36.470589%,36.470589%,36.470589%);fill-opacity:1;" d="M 122.179688 44.839844 L 121.808594 38.671875 L 122.636719 38.671875 L 122.761719 41.710938 C 122.761719 41.878906 122.761719 42.253906 122.804688 42.921875 C 122.804688 43.085938 122.804688 43.210938 122.804688 43.296875 C 122.804688 43.335938 122.804688 43.460938 122.804688 43.710938 C 123.136719 43.003906 123.386719 42.503906 123.554688 42.210938 L 125.421875 38.671875 L 126.253906 38.671875 L 126.464844 42.296875 C 126.464844 42.710938 126.503906 43.210938 126.503906 43.796875 C 126.546875 43.671875 126.628906 43.421875 126.753906 43.171875 C 126.960938 42.710938 127.128906 42.378906 127.210938 42.171875 L 128.957031 38.710938 L 129.789062 38.710938 L 126.671875 44.878906 L 125.796875 44.878906 L 125.589844 41.128906 C 125.589844 40.796875 125.546875 40.421875 125.546875 39.960938 C 125.382812 40.335938 125.257812 40.671875 125.132812 40.878906 L 123.011719 44.878906 L 122.179688 44.878906 "/>
<path style=" stroke:none;fill-rule:nonzero;fill:rgb(36.470589%,36.470589%,36.470589%);fill-opacity:1;" d="M 130.660156 44.839844 L 131.949219 38.671875 L 136.398438 38.671875 L 136.234375 39.378906 L 132.617188 39.378906 L 132.199219 41.296875 L 135.734375 41.296875 L 135.609375 42.003906 L 132.074219 42.003906 L 131.617188 44.128906 L 135.527344 44.128906 L 135.359375 44.839844 L 130.660156 44.839844 "/>
<path style=" stroke:none;fill-rule:nonzero;fill:rgb(36.470589%,36.470589%,36.470589%);fill-opacity:1;" d="M 137.8125 44.839844 L 139.101562 38.671875 L 141.679688 38.671875 C 142.175781 38.671875 142.550781 38.710938 142.84375 38.796875 C 143.09375 38.878906 143.300781 39.046875 143.464844 39.296875 C 143.632812 39.546875 143.675781 39.835938 143.675781 40.171875 C 143.675781 40.671875 143.507812 41.085938 143.175781 41.421875 C 142.84375 41.753906 142.300781 41.960938 141.59375 42.085938 C 141.804688 42.253906 141.96875 42.421875 142.09375 42.585938 C 142.34375 42.960938 142.550781 43.335938 142.71875 43.710938 L 143.175781 44.878906 L 142.261719 44.878906 L 141.804688 43.710938 C 141.636719 43.296875 141.46875 42.921875 141.261719 42.628906 C 141.136719 42.421875 140.972656 42.296875 140.847656 42.210938 C 140.722656 42.128906 140.472656 42.128906 140.140625 42.128906 L 139.183594 42.128906 L 138.601562 44.878906 L 137.8125 44.878906 M 139.351562 41.421875 L 140.472656 41.421875 C 141.011719 41.421875 141.347656 41.421875 141.511719 41.378906 C 141.84375 41.335938 142.09375 41.296875 142.261719 41.171875 C 142.46875 41.046875 142.59375 40.921875 142.71875 40.710938 C 142.84375 40.546875 142.882812 40.335938 142.882812 40.128906 C 142.882812 39.960938 142.84375 39.796875 142.757812 39.671875 C 142.675781 39.546875 142.550781 39.460938 142.425781 39.378906 C 142.300781 39.335938 142.050781 39.296875 141.761719 39.296875 L 139.765625 39.296875 Z M 139.351562 41.421875 "/>
<path style=" stroke:none;fill-rule:nonzero;fill:rgb(36.470589%,36.470589%,36.470589%);fill-opacity:1;" d="M 150.449219 44.839844 L 151.78125 38.671875 L 152.570312 38.671875 L 151.28125 44.839844 L 150.449219 44.839844 "/>
<path style=" stroke:none;fill-rule:nonzero;fill:rgb(36.470589%,36.470589%,36.470589%);fill-opacity:1;" d="M 154.398438 42.835938 L 155.191406 42.753906 L 155.191406 42.960938 C 155.191406 43.210938 155.230469 43.421875 155.355469 43.628906 C 155.480469 43.835938 155.648438 43.960938 155.894531 44.085938 C 156.144531 44.210938 156.4375 44.253906 156.8125 44.253906 C 157.308594 44.253906 157.683594 44.128906 157.933594 43.921875 C 158.183594 43.710938 158.308594 43.460938 158.308594 43.171875 C 158.308594 42.960938 158.222656 42.796875 158.097656 42.628906 C 157.976562 42.460938 157.558594 42.253906 156.9375 42.003906 C 156.4375 41.796875 156.105469 41.628906 155.9375 41.503906 C 155.648438 41.335938 155.4375 41.128906 155.3125 40.921875 C 155.191406 40.710938 155.105469 40.460938 155.105469 40.171875 C 155.105469 39.835938 155.191406 39.546875 155.355469 39.296875 C 155.523438 39.046875 155.773438 38.835938 156.105469 38.710938 C 156.4375 38.585938 156.8125 38.503906 157.226562 38.503906 C 157.726562 38.503906 158.140625 38.585938 158.472656 38.753906 C 158.804688 38.921875 159.054688 39.128906 159.222656 39.421875 C 159.386719 39.710938 159.472656 39.960938 159.472656 40.210938 L 159.472656 40.335938 L 158.679688 40.378906 C 158.679688 40.210938 158.679688 40.085938 158.640625 39.960938 C 158.597656 39.796875 158.515625 39.628906 158.390625 39.546875 C 158.265625 39.421875 158.097656 39.335938 157.890625 39.253906 C 157.683594 39.171875 157.476562 39.128906 157.183594 39.128906 C 156.726562 39.128906 156.394531 39.210938 156.144531 39.421875 C 155.9375 39.585938 155.855469 39.796875 155.855469 40.046875 C 155.855469 40.210938 155.894531 40.335938 155.980469 40.460938 C 156.0625 40.585938 156.1875 40.710938 156.394531 40.796875 C 156.519531 40.878906 156.894531 41.046875 157.433594 41.296875 C 157.890625 41.503906 158.183594 41.628906 158.347656 41.753906 C 158.558594 41.878906 158.722656 42.085938 158.847656 42.296875 C 158.972656 42.503906 159.015625 42.753906 159.015625 43.003906 C 159.015625 43.335938 158.929688 43.628906 158.722656 43.921875 C 158.515625 44.210938 158.222656 44.421875 157.890625 44.585938 C 157.519531 44.753906 157.144531 44.839844 156.644531 44.839844 C 155.9375 44.839844 155.398438 44.671875 154.941406 44.378906 C 154.609375 44.171875 154.398438 43.628906 154.398438 42.835938 "/>
<path style=" stroke:none;fill-rule:nonzero;fill:rgb(36.470589%,36.470589%,36.470589%);fill-opacity:1;" d="M 168.117188 44.839844 L 168.617188 42.460938 L 166.707031 38.671875 L 167.578125 38.671875 L 168.492188 40.460938 C 168.699219 40.835938 168.867188 41.296875 169.074219 41.710938 C 169.28125 41.335938 169.574219 40.921875 169.90625 40.460938 L 171.359375 38.628906 L 172.359375 38.628906 L 169.40625 42.460938 L 168.910156 44.796875 L 168.117188 44.796875 "/>
<path style=" stroke:none;fill-rule:nonzero;fill:rgb(36.470589%,36.470589%,36.470589%);fill-opacity:1;" d="M 173.648438 42.253906 C 173.648438 41.171875 173.980469 40.253906 174.605469 39.585938 C 175.226562 38.921875 176.015625 38.546875 176.933594 38.546875 C 177.679688 38.546875 178.304688 38.796875 178.800781 39.296875 C 179.300781 39.796875 179.507812 40.460938 179.507812 41.296875 C 179.507812 41.921875 179.382812 42.460938 179.136719 42.960938 C 178.96875 43.335938 178.71875 43.671875 178.429688 43.960938 C 178.136719 44.253906 177.847656 44.460938 177.554688 44.585938 C 177.140625 44.796875 176.683594 44.878906 176.226562 44.878906 C 175.726562 44.878906 175.269531 44.753906 174.894531 44.503906 C 174.480469 44.253906 174.1875 43.921875 173.980469 43.503906 C 173.730469 43.171875 173.648438 42.710938 173.648438 42.253906 M 174.4375 42.296875 C 174.4375 42.671875 174.519531 43.003906 174.644531 43.296875 C 174.8125 43.585938 175.019531 43.835938 175.3125 44.003906 C 175.601562 44.171875 175.933594 44.253906 176.265625 44.253906 C 176.597656 44.253906 176.890625 44.171875 177.179688 44.046875 C 177.472656 43.878906 177.722656 43.671875 177.972656 43.421875 C 178.179688 43.171875 178.386719 42.835938 178.511719 42.421875 C 178.636719 42.046875 178.71875 41.628906 178.71875 41.253906 C 178.71875 40.628906 178.554688 40.171875 178.21875 39.796875 C 177.886719 39.421875 177.472656 39.253906 176.933594 39.253906 C 176.308594 39.253906 175.726562 39.546875 175.226562 40.085938 C 174.6875 40.628906 174.4375 41.378906 174.4375 42.296875 Z M 174.4375 42.296875 "/>
<path style=" stroke:none;fill-rule:nonzero;fill:rgb(36.470589%,36.470589%,36.470589%);fill-opacity:1;" d="M 182.667969 38.671875 L 183.5 38.671875 L 182.710938 42.460938 C 182.628906 42.796875 182.628906 43.003906 182.628906 43.171875 C 182.628906 43.503906 182.753906 43.753906 183 43.960938 C 183.25 44.171875 183.582031 44.253906 184 44.253906 C 184.289062 44.253906 184.621094 44.171875 184.871094 44.046875 C 185.121094 43.878906 185.371094 43.671875 185.496094 43.421875 C 185.660156 43.128906 185.785156 42.710938 185.910156 42.085938 L 186.617188 38.671875 L 187.449219 38.671875 L 186.703125 42.296875 C 186.578125 42.921875 186.410156 43.421875 186.203125 43.753906 C 185.996094 44.128906 185.703125 44.421875 185.328125 44.628906 C 184.957031 44.839844 184.539062 44.964844 184.039062 44.964844 C 183.582031 44.964844 183.167969 44.878906 182.835938 44.714844 C 182.503906 44.546875 182.253906 44.335938 182.085938 44.085938 C 181.921875 43.796875 181.835938 43.503906 181.835938 43.171875 C 181.835938 42.960938 181.878906 42.585938 182.003906 42.046875 L 182.667969 38.671875 "/>
<path style=" stroke:none;fill-rule:nonzero;fill:rgb(36.470589%,36.470589%,36.470589%);fill-opacity:1;" d="M 188.988281 44.839844 L 190.277344 38.671875 L 192.855469 38.671875 C 193.351562 38.671875 193.726562 38.710938 194.019531 38.796875 C 194.265625 38.878906 194.476562 39.046875 194.640625 39.296875 C 194.808594 39.546875 194.847656 39.835938 194.847656 40.171875 C 194.847656 40.671875 194.683594 41.085938 194.351562 41.421875 C 194.019531 41.753906 193.476562 41.960938 192.769531 42.085938 C 192.980469 42.253906 193.144531 42.421875 193.269531 42.585938 C 193.519531 42.960938 193.726562 43.335938 193.894531 43.710938 L 194.351562 44.878906 L 193.476562 44.878906 L 193.019531 43.710938 C 192.855469 43.296875 192.6875 42.921875 192.480469 42.628906 C 192.355469 42.421875 192.1875 42.296875 192.0625 42.210938 C 191.898438 42.128906 191.691406 42.128906 191.359375 42.128906 L 190.402344 42.128906 L 189.820312 44.878906 L 188.988281 44.878906 M 190.527344 41.421875 L 191.648438 41.421875 C 192.1875 41.421875 192.523438 41.421875 192.6875 41.378906 C 193.019531 41.335938 193.269531 41.296875 193.4375 41.171875 C 193.644531 41.046875 193.808594 40.921875 193.894531 40.710938 C 194.019531 40.546875 194.058594 40.335938 194.058594 40.128906 C 194.058594 39.960938 194.019531 39.796875 193.933594 39.671875 C 193.851562 39.546875 193.726562 39.460938 193.601562 39.378906 C 193.476562 39.335938 193.226562 39.296875 192.9375 39.296875 L 190.984375 39.296875 Z M 190.527344 41.421875 "/>
<path style=" stroke:none;fill-rule:nonzero;fill:rgb(36.470589%,36.470589%,36.470589%);fill-opacity:1;" d="M 196.84375 42.835938 L 197.636719 42.753906 L 197.636719 42.960938 C 197.636719 43.210938 197.675781 43.421875 197.800781 43.628906 C 197.925781 43.835938 198.09375 43.960938 198.339844 44.085938 C 198.589844 44.210938 198.882812 44.253906 199.257812 44.253906 C 199.753906 44.253906 200.128906 44.128906 200.378906 43.921875 C 200.628906 43.710938 200.753906 43.460938 200.753906 43.171875 C 200.753906 42.960938 200.667969 42.796875 200.546875 42.628906 C 200.421875 42.460938 200.003906 42.253906 199.382812 42.003906 C 198.882812 41.796875 198.550781 41.628906 198.382812 41.503906 C 198.09375 41.335938 197.882812 41.128906 197.757812 40.921875 C 197.636719 40.710938 197.550781 40.460938 197.550781 40.171875 C 197.550781 39.835938 197.636719 39.546875 197.800781 39.296875 C 197.96875 39.046875 198.21875 38.835938 198.550781 38.710938 C 198.882812 38.585938 199.257812 38.503906 199.671875 38.503906 C 200.171875 38.503906 200.585938 38.585938 200.960938 38.753906 C 201.292969 38.921875 201.542969 39.128906 201.710938 39.421875 C 201.875 39.710938 201.957031 39.960938 201.957031 40.210938 L 201.957031 40.335938 L 201.167969 40.378906 C 201.167969 40.210938 201.167969 40.085938 201.128906 39.960938 C 201.085938 39.796875 201.003906 39.628906 200.878906 39.546875 C 200.753906 39.421875 200.585938 39.335938 200.378906 39.253906 C 200.171875 39.171875 199.964844 39.128906 199.671875 39.128906 C 199.214844 39.128906 198.882812 39.210938 198.632812 39.421875 C 198.425781 39.585938 198.339844 39.796875 198.339844 40.046875 C 198.339844 40.210938 198.382812 40.335938 198.464844 40.460938 C 198.550781 40.585938 198.675781 40.710938 198.882812 40.796875 C 199.046875 40.878906 199.382812 41.046875 199.921875 41.296875 C 200.378906 41.503906 200.667969 41.628906 200.835938 41.753906 C 201.042969 41.878906 201.25 42.085938 201.335938 42.296875 C 201.460938 42.503906 201.5 42.753906 201.5 43.003906 C 201.5 43.335938 201.375 43.628906 201.210938 43.921875 C 201.003906 44.210938 200.710938 44.421875 200.378906 44.585938 C 200.003906 44.753906 199.589844 44.839844 199.132812 44.839844 C 198.425781 44.839844 197.882812 44.671875 197.425781 44.378906 C 197.054688 44.171875 196.84375 43.628906 196.84375 42.835938 "/>
</g>
</svg>
