<?xml version="1.0" encoding="UTF-8"?>
<svg xmlns="http://www.w3.org/2000/svg" xmlns:xlink="http://www.w3.org/1999/xlink" width="250px" height="104px" viewBox="0 0 250 104" version="1.1">
<g id="surface1">
<path style=" stroke:none;fill-rule:nonzero;fill:rgb(92.941177%,10.980392%,14.117648%);fill-opacity:1;" d="M 50.21875 73.347656 C 45.40625 73.347656 40.800781 73.527344 36.242188 73.214844 C 35.15625 73.140625 33.835938 71.652344 33.226562 70.492188 C 29.898438 64.140625 26.75 57.667969 22.933594 50.035156 C 15.136719 68.765625 7.8125 86.367188 0.488281 103.964844 C 0.328125 103.921875 0.164062 103.878906 0 103.832031 C 1.902344 92.464844 3.773438 81.085938 5.734375 69.734375 C 7.886719 57.238281 10.203125 44.769531 12.269531 32.257812 C 12.847656 28.730469 14.46875 27.035156 18.0625 27.167969 C 21.96875 27.304688 26.691406 25.996094 29.558594 27.765625 C 32.320312 29.460938 33.210938 34.25 34.816406 37.734375 C 37.296875 43.132812 39.6875 48.5625 42.703125 55.257812 C 50.265625 36.066406 57.347656 18.050781 64.449219 0.0351562 C 64.613281 0.09375 64.777344 0.136719 64.9375 0.195312 C 60.082031 24.328125 55.226562 48.488281 50.21875 73.347656 Z M 50.21875 73.347656 "/>
<path style=" stroke:none;fill-rule:nonzero;fill:rgb(59.607846%,21.568628%,58.039218%);fill-opacity:1;" d="M 220.75 74.867188 C 215.996094 74.867188 211.230469 74.984375 206.476562 74.835938 C 201.648438 74.6875 199.4375 71.832031 200.386719 67.144531 C 202.019531 59.082031 203.683594 51.019531 205.421875 42.984375 C 206.816406 36.527344 209.746094 33.671875 216.21875 33.460938 C 225.027344 33.179688 233.851562 33.226562 242.660156 33.476562 C 248.734375 33.640625 250.960938 37.195312 249.625 43.328125 C 248.097656 50.273438 246.730469 57.25 245.316406 64.214844 C 243.65625 72.410156 240.714844 74.867188 232.515625 74.882812 C 228.59375 74.882812 224.671875 74.882812 220.75 74.867188 Z M 222.445312 66.742188 C 224.121094 66.742188 225.933594 67.144531 227.417969 66.625 C 228.933594 66.105469 230.953125 64.867188 231.296875 63.558594 C 232.871094 57.519531 234.015625 51.34375 235.097656 45.1875 C 235.261719 44.234375 234.355469 42.195312 233.882812 42.167969 C 229.589844 41.972656 225.25 41.914062 220.972656 42.34375 C 220.039062 42.433594 218.878906 44.472656 218.539062 45.8125 C 217.46875 49.976562 216.769531 54.246094 215.847656 58.457031 C 214.035156 66.789062 214.023438 66.789062 222.445312 66.742188 Z M 222.445312 66.742188 "/>
<path style=" stroke:none;fill-rule:nonzero;fill:rgb(59.607846%,21.568628%,58.039218%);fill-opacity:1;" d="M 103.320312 74.71875 C 103.617188 72.886719 103.796875 71.386719 104.105469 69.914062 C 104.316406 68.960938 104.703125 68.066406 105.132812 66.773438 C 113.433594 66.773438 121.796875 66.847656 130.160156 66.699219 C 131.824219 66.667969 134.082031 66.238281 134.988281 65.121094 C 136.042969 63.8125 136.441406 61.433594 136.070312 59.75 C 135.878906 58.917969 133.355469 58.175781 131.851562 58.128906 C 126.269531 57.949219 120.652344 57.773438 115.082031 58.160156 C 110.910156 58.457031 107.257812 54.589844 108.339844 49.828125 C 108.964844 47.121094 109.425781 44.367188 110.109375 41.660156 C 111.238281 37.183594 113.925781 33.878906 118.679688 33.773438 C 131.066406 33.523438 143.453125 33.6875 156.136719 33.6875 C 155.558594 36.4375 155.023438 38.996094 154.414062 41.898438 C 145.816406 41.898438 137.320312 41.824219 128.824219 41.957031 C 127.277344 41.988281 125.09375 42.375 124.367188 43.402344 C 123.371094 44.8125 123.132812 47.03125 123.296875 48.847656 C 123.34375 49.382812 125.824219 50.019531 127.203125 50.050781 C 132.640625 50.183594 138.089844 50.125 143.527344 50.082031 C 148.503906 50.035156 151.28125 53.085938 150.644531 58.039062 C 150.300781 60.671875 149.960938 63.292969 149.5 65.910156 C 148.652344 70.613281 145.398438 74.507812 141.136719 74.597656 C 128.617188 74.894531 116.078125 74.71875 103.320312 74.71875 Z M 103.320312 74.71875 "/>
<path style=" stroke:none;fill-rule:nonzero;fill:rgb(59.607846%,21.568628%,58.039218%);fill-opacity:1;" d="M 200.386719 46.972656 C 196.019531 46.972656 191.859375 46.972656 187.375 46.972656 C 187.878906 42.449219 185.519531 41.71875 181.640625 41.855469 C 170.398438 42.253906 171.601562 39.992188 168.988281 52.34375 C 168.242188 55.882812 167.414062 59.410156 166.699219 62.964844 C 166.222656 65.359375 167.101562 66.773438 169.730469 66.757812 C 172.9375 66.730469 176.175781 66.953125 179.371094 66.625 C 180.648438 66.492188 182.503906 65.375 182.859375 64.304688 C 183.898438 61.132812 186.054688 60.882812 188.742188 60.984375 C 191.519531 61.089844 194.28125 61.015625 197.625 61.015625 C 196.835938 64.125 196.597656 66.980469 195.410156 69.375 C 193.734375 72.753906 190.851562 74.910156 186.738281 74.894531 C 177.511719 74.851562 168.289062 74.957031 159.066406 74.851562 C 153.582031 74.792969 151.429688 71.875 152.558594 66.445312 C 154.222656 58.53125 155.871094 50.617188 157.550781 42.714844 C 158.828125 36.75 162.050781 33.6875 168.15625 33.492188 C 176.949219 33.226562 185.769531 33.226562 194.5625 33.402344 C 200.503906 33.523438 202.761719 36.734375 201.546875 42.554688 C 201.261719 43.890625 200.847656 45.214844 200.386719 46.972656 Z M 200.386719 46.972656 "/>
<path style=" stroke:none;fill-rule:nonzero;fill:rgb(59.607846%,21.568628%,58.039218%);fill-opacity:1;" d="M 107.714844 33.773438 C 107.332031 35.992188 107.316406 38.164062 106.5 39.980469 C 106.054688 40.945312 104.253906 41.824219 103.050781 41.855469 C 95.640625 42.015625 88.214844 42.0625 80.816406 41.882812 C 77.253906 41.792969 75.410156 42.984375 74.816406 46.644531 C 74.027344 51.449219 72.765625 56.179688 71.769531 60.957031 C 70.777344 65.71875 71.59375 66.757812 76.40625 66.773438 C 84.484375 66.789062 92.550781 66.773438 100.675781 66.773438 C 99.679688 74.867188 99.679688 74.867188 92.359375 74.867188 C 82.835938 74.867188 73.332031 74.910156 63.808594 74.851562 C 57.660156 74.808594 55.550781 72.113281 56.8125 66.089844 C 58.492188 58.023438 60.261719 49.992188 61.863281 41.929688 C 62.800781 37.226562 65.605469 34.011719 70.210938 33.878906 C 82.597656 33.539062 95.003906 33.773438 107.714844 33.773438 Z M 107.714844 33.773438 "/>
<path style=" stroke:none;fill-rule:nonzero;fill:rgb(59.607846%,21.568628%,58.039218%);fill-opacity:1;" d="M 75.378906 57.847656 C 75.753906 55.808594 75.753906 54.023438 76.449219 52.59375 C 76.96875 51.523438 78.394531 50.230469 79.449219 50.199219 C 86.535156 49.992188 93.636719 50.09375 101.253906 50.09375 C 100.808594 52.773438 100.410156 55.152344 99.949219 57.847656 C 91.839844 57.847656 83.832031 57.847656 75.378906 57.847656 Z M 75.378906 57.847656 "/>
</g>
</svg>
